<?xml version="1.0" encoding="UTF-8"?>
<svg id="Layer_1" xmlns="http://www.w3.org/2000/svg" xmlns:xlink="http://www.w3.org/1999/xlink" version="1.1" viewBox="0 0 1200 1200">
  <!-- Generator: Adobe Illustrator 29.0.0, SVG Export Plug-In . SVG Version: 2.1.0 Build 186)  -->
  <defs>
    <style>
      .st0, .st1, .st2, .st3, .st4, .st5 {
        fill: none;
      }

      .st6 {
        fill: #eaeaea;
      }

      .st1 {
        stroke: url(#linear-gradient);
        stroke-miterlimit: 4;
        stroke-width: 2.4px;
      }

      .st7 {
        fill: #fff;
      }

      .st8 {
        fill: #fafafa;
      }

      .st2 {
        stroke: url(#linear-gradient1);
      }

      .st2, .st3, .st4, .st5 {
        stroke-width: 2.4px;
      }

      .st3 {
        stroke: url(#linear-gradient2);
      }

      .st4 {
        stroke: url(#linear-gradient3);
      }

      .st9 {
        opacity: .5;
      }

      .st5 {
        stroke: #c9c9c9;
      }

      .st10 {
        clip-path: url(#clippath);
      }
    </style>
    <linearGradient id="linear-gradient" x1="653.6" y1="959.8" x2="99" y2="959.8" gradientTransform="translate(-343.4 188.6) rotate(-45)" gradientUnits="userSpaceOnUse">
      <stop offset="0" stop-color="#c9c9c9" stop-opacity="0"/>
      <stop offset=".2" stop-color="#c9c9c9"/>
      <stop offset=".8" stop-color="#c9c9c9"/>
      <stop offset="1" stop-color="#c9c9c9" stop-opacity="0"/>
    </linearGradient>
    <linearGradient id="linear-gradient1" x1="796.6" y1="601.3" x2="404.2" y2="601.3" gradientTransform="translate(0 1200) scale(1 -1)" gradientUnits="userSpaceOnUse">
      <stop offset="0" stop-color="#c9c9c9" stop-opacity="0"/>
      <stop offset=".2" stop-color="#c9c9c9"/>
      <stop offset=".8" stop-color="#c9c9c9"/>
      <stop offset="1" stop-color="#c9c9c9" stop-opacity="0"/>
    </linearGradient>
    <linearGradient id="linear-gradient2" x1="599.5" y1="796" x2="599.5" y2="403.6" gradientTransform="translate(0 1200) scale(1 -1)" gradientUnits="userSpaceOnUse">
      <stop offset="0" stop-color="#c9c9c9" stop-opacity="0"/>
      <stop offset=".2" stop-color="#c9c9c9"/>
      <stop offset=".8" stop-color="#c9c9c9"/>
      <stop offset="1" stop-color="#c9c9c9" stop-opacity="0"/>
    </linearGradient>
    <linearGradient id="linear-gradient3" x1="404.3" y1="794.8" x2="796.4" y2="402.7" gradientTransform="translate(0 1200) scale(1 -1)" gradientUnits="userSpaceOnUse">
      <stop offset="0" stop-color="#c9c9c9" stop-opacity="0"/>
      <stop offset=".2" stop-color="#c9c9c9"/>
      <stop offset=".8" stop-color="#c9c9c9"/>
      <stop offset="1" stop-color="#c9c9c9" stop-opacity="0"/>
    </linearGradient>
    <clipPath id="clippath">
      <path class="st0" d="M600.7,656.7c-31.4,0-56.8-25.4-56.8-56.8s25.4-56.8,56.8-56.8,56.8,25.4,56.8,56.8-25.4,56.8-56.8,56.8Z"/>
    </clipPath>
  </defs>
  <rect class="st6" width="1200" height="1200" rx="3" ry="3"/>
  <g class="st9">
    <g class="st9">
      <path class="st8" d="M600.7,736.5c-75.5,0-136.6-61.2-136.6-136.6s61.2-136.6,136.6-136.6,136.6,61.2,136.6,136.6-61.2,136.6-136.6,136.6Z"/>
      <path class="st5" d="M600.7,736.5c-75.5,0-136.6-61.2-136.6-136.6s61.2-136.6,136.6-136.6,136.6,61.2,136.6,136.6-61.2,136.6-136.6,136.6Z"/>
    </g>
    <path class="st1" d="M406,796.6l391.4-391.4"/>
    <path class="st2" d="M404.8,598.7h391.7"/>
    <path class="st3" d="M599.5,795.7v-391.7"/>
    <path class="st4" d="M795.7,796.6l-391.4-391.4"/>
    <path class="st7" d="M600.7,656.7c-31.4,0-56.8-25.4-56.8-56.8s25.4-56.8,56.8-56.8,56.8,25.4,56.8,56.8-25.4,56.8-56.8,56.8Z"/>
    <g class="st10">
      <path d="M660,609.5c-.1.1-.2.3-.3.4-1.9,2.1-4.2,3.1-7,3.1h-16.9c-2.5,0-4.5-.9-6.2-2.6-1.7-1.7-2.5-3.8-2.5-6.1v-32.3h8.8v27.7c0,1.4.5,2.5,1.4,3.3.9.8,2,1.2,3.1,1.2h9.7c2.3,0,3.5-.6,3.5-1.9s-.4-2.1-1.2-3.7l-3.8-7.5h10l.7,1.6c-.3-2.7-.3-5.4-.5-8,0-.1-.1-.3-.2-.3-1.9-.9-1.2-2.4-.7-3.8-1.7-.8-2.4-1.8-1.8-3.8.2-.7-.4-2.2-1.1-2.5-1.4-.7-2.1-1.5-2.1-3s-.5-1-.8-1.5c-1.1-1.9-2.2-3.8-3.1-5.7-1-2-1.7-4.3-4.3-4.9-.3,0-.8-.4-.8-.6.2-2.6-1.9-2.7-3.5-3.3-3.1-1.2-5.6-2.8-6.8-6-.1-.4-.5-.9-.7-.9-2.9-.3-4.7-4-8-2.5-.2,0-.6-.3-.9-.5-2-1.6-3.7-3.9-6.8-3.5-.1,0-.4-.2-.5-.4-.9-1.2-2-.8-3.3-.6-1.7.3-3.6.4-5.1-.2-2.6-1.1-5.1-2-7.9-.7-.8.3-1.6.6-2.5.6-4.7.3-9.4.4-14.2.7-.4,0-1,.4-1.1.7-.6,1.6-1.8,1.7-3.3,1.5-2.5-.2-5,.8-6.4,2.6-1.9,2.3-4,3.5-6.7,4-1.5.3-2.7.6-3.1,2.3-.2.6-1.1,1.3-1.8,1.5-1.9.6-3.5,1.3-2.7,4-2,0-3.5.4-3.7,2.5-.1,1.7-.8,2.6-2.8,2.7-.7,0-1.3,1.6-1.8,2.5-.3.5,0,1.2,0,1.8-.9.4-1.7.7-2.7,1,1.6,3.2-.6,4.6-2.7,5.7.1,1.2.4,2.2.2,3-.3,1.3-1,2.4-1.6,3.6-.3,1-1.1,1.8-1.4,2.7-.5,1.7-.8,3.4-1.1,5.2-.3,1.6-.9,3.1-1,4.7,0,.4,0,.9,0,1.3,5,3.9,11,7.1,18.2,9.6,8.4,2.9,17.2,4.3,26.5,4.3s14.9-1,21.5-2.9c5.7-1.6,8.6-3.1,8.6-4.4s-1-2.1-3.1-3.2c-3.1-1.7-7.9-2.6-14.3-2.6v-8.8c9.5-.1,16.6,1.7,21.4,5.6,3.4,2.8,5.1,5.8,5.1,9,0,5.5-4.7,9.7-14,12.6-7.3,2.3-15.7,3.5-25,3.5-16.4,0-30.9-3.8-43.4-11.2.2,1,.2,2,0,2.9-.6,2.2-1.1,4.1,1.1,5.5-.2.9-.4,1.7-.6,2.5.7.6,1.3,1.1,1.8,1.5-.1,1-.6,2.5-.3,2.7,2.4,1.4,3.1,3.8,4.1,6,1.1,2.4,1.2,5.3,3.9,6.7.1,0,.1.5,0,.8-.2,1.2.3,1.9,1.4,2.3.3.1.7.6.7.9.1,2.6,2,3.3,4,3.6,1.6.3,2.5,1.1,2.5,2.9,0,.5,0,1,.1,1.5h2.7c.7,1.3,1.8,2.1,2.8,3,.4.4.7.9,1,1.3.3.4.7,1.1.9,1,1.8-.2,2.6,1.2,3.8,2,1.2.8,2.6,1.3,3.9,2.1,2.4,1.3,5.8-.3,7.7,2.6,0,.1.5.1.6,0,1.8-1.1,2.7.2,3.7,1.4,1.7-1.2,3.1-.7,3.8.3,1.5,0,2.6-.1,3.7,0,1.1.1,2.1.7,3.2.8,1.3.1,2.7.2,3.9,0,1.7-.3,3.3-1.2,4.9,0,0,0,.2-.1.4-.2,2.7-.9,5.5-2.4,8.2-2.4,3.6,0,6.2-1.8,9.1-3.2,1.6-.8,3.3-2.3,4.9-2.3,2.4,0,3.4-.9,4.2-2.8.7-1.6,1.7-2.7,3.7-2.5.7,0,1.6-.7,2-1.4,1.2-2,2.4-3.9,4.9-4.4.5-.1.9-1,1.3-1.5,2.1-2.3,2.7-5.7,6-7.5,1.6-.9,2.8-4.1,2.7-6.3,0-2.4.7-3.8,2-5.5.9-1.1,2-2.8,1.8-4.1-.3-2.7.7-4.9,1.8-7h0ZM623.8,581c-13.9,0-29.5,4.8-46.6,14.4v-8.8c4-3.8,10.9-7.2,20.6-10.1,9.5-3,18.1-4.4,26-4.4v8.8h0ZM645.8,625.2c-1,1-2.2,1.6-3.6,1.6s-2.8-.5-3.8-1.6-1.5-2.3-1.5-3.7.5-2.7,1.5-3.7c1-1,2.3-1.6,3.8-1.6s2.7.5,3.7,1.6,1.5,2.3,1.5,3.7-.5,2.7-1.6,3.7Z"/>
    </g>
    <path class="st5" d="M600.7,656.7c-31.4,0-56.8-25.4-56.8-56.8s25.4-56.8,56.8-56.8,56.8,25.4,56.8,56.8-25.4,56.8-56.8,56.8Z"/>
  </g>
</svg>