<?xml version="1.0" encoding="UTF-8"?>
<svg id="Layer_1" xmlns="http://www.w3.org/2000/svg" version="1.1" viewBox="0 0 1000 1000">
  <!-- Generator: Adobe Illustrator 29.0.0, SVG Export Plug-In . SVG Version: 2.1.0 Build 186)  -->
  <path d="M906.1,565c-.8.9-1.5,1.9-2.3,2.8-12.7,14.2-28.4,21.3-47.1,21.3h-114c-16.6,0-30.5-5.9-41.7-17.8-11.4-11.8-17-25.6-17-41.3v-218.5h59.2v187.2c0,9.3,3.1,16.8,9.2,22.3,6.1,5.5,13.3,8.3,21.3,8.3h65.6c15.7,0,23.6-4.2,23.6-12.7s-2.8-14.2-8.3-24.8l-25.5-51h67.5l4.8,10.8c-2.2-18-2.2-36.2-3.2-54.3,0-.8-.8-1.9-1.6-2.3-12.6-6.1-8.2-16.1-4.7-25.9-11.6-5.4-16.5-12.3-11.9-25.4,1.6-4.5-3-14.8-7.4-16.9-9.7-4.5-14.2-9.9-14.2-20.5s-3.7-6.5-5.6-9.9c-7.2-12.9-14.7-25.6-21.3-38.8-6.8-13.7-11.6-28.8-29.3-32.9-2-.5-5.2-2.7-5.1-3.9,1.5-17.5-12.9-18.3-23.5-22.3-20.7-7.8-37.9-18.9-46-40.7-.9-2.4-3.1-5.8-5-6-19.3-2-31.5-26.8-54.4-16.8-1.3.6-4.3-1.9-6.1-3.3-13.6-11.1-25.1-26.1-45.8-23.5-1,0-2.6-1.3-3.4-2.4-6.2-8.1-13.4-5.5-22-4.3-11.3,1.7-24.5,2.7-34.5-1.6-17.9-7.7-34.6-13.2-53.6-5-5.2,2.2-11.1,3.8-16.7,4.1-31.9,1.7-63.9,2.9-95.9,4.6-2.7,0-6.8,2.6-7.7,5-4.3,10.9-11.9,11.2-22.2,10.2-17-1.6-33.6,5.3-43.5,17.3-12.6,15.4-27.4,23.4-45.5,26.8-10,1.9-18.2,3.8-21.3,15.6-1.2,4.3-7.3,8.9-12.1,10.4-13.1,4.1-23.8,9-18.3,27-13.5.1-23.7,2.7-24.9,17.2-.9,11.3-5.5,17.8-18.8,18.3-4.4.2-9.1,10.6-12.2,17-1.7,3.5-.3,8.4-.3,12.4-6.4,2.5-11.7,4.5-18.4,7.1,10.5,21.5-4.3,30.8-18.3,38.4.8,8,3,14.8,1.6,20.6-2.1,8.5-6.9,16.2-10.6,24.3-2.1,6.5-7.3,11.9-9.4,18.4-3.6,11.3-5.2,23.3-7.7,34.9-2.3,10.6-5.9,21-6.7,31.7-.2,2.9,0,5.9.5,8.9,33.5,26.7,74.5,48.3,123,64.9,56.5,19.5,116.1,29.3,179,29.3s100.6-6.6,145.2-19.7c38.6-11,57.9-21,57.9-29.9s-7-14.4-21-21.7c-21.2-11.5-53.5-17.4-96.8-17.8v-59.2c64.1-.8,112.3,11.7,144.6,37.6,22.9,18.7,34.4,39.1,34.4,61.1,0,36.9-31.6,65.4-94.9,85.3-49.7,15.7-106.1,23.6-169.4,23.6-111.1,0-208.9-25.4-293.5-76.1,1.3,6.8,1.6,13.6,0,19.6-3.9,15.1-7.7,27.7,7.7,36.9-1.6,6.4-3,11.8-4.2,16.7,5,4.1,9.1,7.4,12.2,10-.8,7.1-3.8,17.2-1.7,18.3,16.2,9.2,20.7,25.7,27.9,40.6,7.6,15.9,8.3,35.7,26.7,45.5.9.5.8,3.7.5,5.6-1.3,8,1.9,12.6,9.4,15.3,2.2.8,4.9,4,4.9,6.2.7,17.7,13.2,22,27.2,24.5,11.1,1.9,17.2,7.6,16.7,19.4-.1,3.2.6,6.5,1,10.2h18c5,8.7,12.1,14.1,18.8,20.1,2.7,2.4,4.4,6,6.7,8.9,2,2.6,4.4,7.4,6.2,7.1,12-1.4,17.5,8,25.6,13.4,8.3,5.6,17.9,9.1,26.7,14,16.3,9.1,39.3-1.9,52.4,17.3.5.7,3.1.9,4,.3,11.9-7.5,18.3,1.1,25.3,9.4,11.3-8,20.7-4.9,25.7,1.9,10.3,0,17.6-.8,24.7.2,7.2,1,14.1,4.7,21.4,5.6,8.8,1,18,1.6,26.6,0,11.3-2.1,22.1-8.2,33.3-.2.4.3,1.6-.8,2.5-1.1,18.5-5.9,36.9-16.1,55.4-16.4,24.1-.4,41.8-12,61.4-21.6,11-5.4,22.1-15.5,32.9-15.3,16,.3,22.8-6.1,28.1-18.7,4.6-10.9,11.3-18.2,25.2-17.1,4.4.4,11-4.8,13.8-9.2,8.4-13.3,15.9-26.3,33.4-29.6,3.6-.7,6-6.9,9.1-10.3,14.4-15.8,18.4-38.5,40.5-50.6,11-6,18.8-27.9,18.5-42.4-.4-16.1,4.7-25.7,13.8-36.9,6.3-7.7,13.5-19,12.3-27.6-2.3-18.3,4.7-33.1,12.5-47.4ZM660.7,372c-94.3,0-199.3,32.5-315.3,97.4v-59.2c27.2-25.9,73.7-48.6,139.5-68.1,64.1-20,122.7-29.9,175.8-29.9v59.8ZM809.5,671.1c-7,7-15.2,10.5-24.5,10.5s-18.7-3.5-25.5-10.5-10.2-15.4-10.2-25.2,3.4-18.1,10.2-25.2c6.8-7,15.3-10.5,25.5-10.5s18,3.5,24.8,10.5,10.2,15.4,10.2,25.2-3.5,18.2-10.5,25.2Z"/>
</svg>